<svg id="Layer_1" data-name="Layer 1" xmlns="http://www.w3.org/2000/svg" viewBox="0 0 223 135"><defs><style>.cls-1{stroke:#fff;stroke-miterlimit:10;}.cls-2{fill:#fff;}.cls-3{fill:#fdce0c;}</style></defs><title>Artboard 1</title><polygon class="cls-1" points="200.1 0.99 22.64 0.99 14.45 9.18 14.45 18.64 8.4 18.64 0.8 26.25 0.8 110.49 8.91 118.61 13.81 118.61 13.81 125.85 22.23 134.26 201.47 134.26 209.4 126.33 209.4 118.68 214.78 118.68 222.38 111.08 222.38 26.98 214.26 18.86 208.93 18.86 208.93 9.57 200.1 0.99"/><path class="cls-2" d="M111.59,110.45A46.46,46.46,0,0,1,78.74,31.14a46.46,46.46,0,1,1,65.7,65.7A46.12,46.12,0,0,1,111.59,110.45Zm0-90.41a44,44,0,1,0,31.07,12.88A43.65,43.65,0,0,0,111.59,20Z"/><path class="cls-3" d="M86.5,63,84.14,63a27.47,27.47,0,0,1,26.41-26.4l.09,2.35A25.12,25.12,0,0,0,86.5,63Z"/><path class="cls-3" d="M110.55,91.44A27.49,27.49,0,0,1,84.14,65l2.36-.09a25.12,25.12,0,0,0,24.14,24.14Z"/><path class="cls-3" d="M112.63,91.44l-.09-2.36a25.12,25.12,0,0,0,24.14-24.14L139,65a27.47,27.47,0,0,1-26.4,26.41Z"/><path class="cls-3" d="M136.68,63A25.12,25.12,0,0,0,112.54,38.9l.09-2.35A27.45,27.45,0,0,1,139,63Z"/><path class="cls-2" d="M107,58.31h-5.91l-.31.61,6.53,4.79c1.22-.71,2.59-1.43,4-2.14"/><path class="cls-2" d="M112.32,67.28l5.75,4.18H124l.26-.57-8.56-6.26c-1.12.86-2.29,1.73-3.36,2.65"/><path class="cls-2" d="M106.15,71.46H100.8l-.45-.72c3.61-3.51,19.81-18.49,55-20.07,0,0-29.5,1-49.22,20.79"/><path class="cls-2" d="M80.71,105.47a2.52,2.52,0,0,1,.74-.75,2.22,2.22,0,0,1,.62-.24,1.53,1.53,0,0,1,.64,0,2.07,2.07,0,0,1,.81.36,1.92,1.92,0,0,1,.86,1.27,2.16,2.16,0,0,1-.43,1.57,2.11,2.11,0,0,1-1.31,1,1.93,1.93,0,0,1-1.49-.35,1.9,1.9,0,0,1-.86-1.27A2,2,0,0,1,80.71,105.47Zm.71.46a1.49,1.49,0,0,0-.33,1,1,1,0,0,0,.46.75,1,1,0,0,0,.86.17,1.58,1.58,0,0,0,.85-.69,1.5,1.5,0,0,0,.34-1,1.13,1.13,0,0,0-1.34-.92A1.52,1.52,0,0,0,81.42,105.93Z"/><path class="cls-2" d="M84.71,107.05l.37.22.11-.19a1.38,1.38,0,0,1,.35-.43.59.59,0,0,1,.4-.11,1.2,1.2,0,0,1,.52.18,2,2,0,0,1,.5.42l-.37.41a1.13,1.13,0,0,0-.28-.22.32.32,0,0,0-.25-.06.44.44,0,0,0-.21.22l-.11.18.49.3-.31.52-.5-.3-1.19,2-.66-.39,1.19-2-.37-.22Z"/><path class="cls-2" d="M89.64,111.36l.61.57a1.78,1.78,0,0,1-1,.62,1.9,1.9,0,0,1-2-1.25,2.1,2.1,0,0,1,.19-1.58,2.18,2.18,0,0,1,1.15-1.18,1.79,1.79,0,0,1,1.48.09,1.71,1.71,0,0,1,.89.93,1.57,1.57,0,0,1,0,.85l-.81-.18a.82.82,0,0,0-.06-.58.86.86,0,0,0-.41-.41.94.94,0,0,0-.8,0,1.64,1.64,0,0,0-.71.82,1.72,1.72,0,0,0-.23,1.1.9.9,0,0,0,.5.61.84.84,0,0,0,.6.06A1.2,1.2,0,0,0,89.64,111.36Z"/><path class="cls-2" d="M90.9,111.92a1.66,1.66,0,0,1,.46-.63,1.31,1.31,0,0,1,.7-.31,1.73,1.73,0,0,1,.8.11,1.48,1.48,0,0,1,.85.81,1.53,1.53,0,0,1,0,1.17,1.49,1.49,0,0,1-.81.86,1.42,1.42,0,0,1-1.16,0,1.65,1.65,0,0,1-.65-.46,1.22,1.22,0,0,1-.32-.7A1.83,1.83,0,0,1,90.9,111.92Zm.73.33a1,1,0,0,0-.06.7.64.64,0,0,0,.39.4.62.62,0,0,0,.56,0,1,1,0,0,0,.44-.55,1,1,0,0,0,.05-.69.67.67,0,0,0-.39-.4.65.65,0,0,0-.56,0A.93.93,0,0,0,91.63,112.25Z"/><path class="cls-2" d="M95.72,115.28l.14-.42a1.17,1.17,0,0,1-1.08.19,1.13,1.13,0,0,1-.47-.29.78.78,0,0,1-.21-.45,1.69,1.69,0,0,1,.1-.65l.57-1.76.74.24-.42,1.28a4,4,0,0,0-.19.73.47.47,0,0,0,.08.26.49.49,0,0,0,.25.16.59.59,0,0,0,.37,0,.55.55,0,0,0,.29-.19,3.21,3.21,0,0,0,.3-.74l.38-1.17.73.23-.89,2.79Z"/><path class="cls-2" d="M98,115.93l-.75-.19L98,112.9l.69.19-.1.4a1.17,1.17,0,0,1,.42-.29.59.59,0,0,1,.35,0,1,1,0,0,1,.45.27l-.4.59a.69.69,0,0,0-.32-.21.41.41,0,0,0-.29,0,.55.55,0,0,0-.25.27,4.32,4.32,0,0,0-.31.93Z"/><path class="cls-2" d="M99.47,115.45l.78,0a.6.6,0,0,0,.13.38.72.72,0,0,0,.39.2.8.8,0,0,0,.47,0,.28.28,0,0,0,.14-.18.22.22,0,0,0,0-.16.63.63,0,0,0-.23-.15A4.1,4.1,0,0,1,100,115a.75.75,0,0,1-.2-.71.81.81,0,0,1,.42-.57,1.36,1.36,0,0,1,1-.06,1.57,1.57,0,0,1,.84.37,1,1,0,0,1,.28.65l-.75,0a.38.38,0,0,0-.12-.29.68.68,0,0,0-.34-.17.84.84,0,0,0-.45,0,.17.17,0,0,0-.12.14.18.18,0,0,0,0,.15,3.5,3.5,0,0,0,.66.36,2,2,0,0,1,.78.51.71.71,0,0,1,.12.61.85.85,0,0,1-.47.61,1.49,1.49,0,0,1-1,.09,1.69,1.69,0,0,1-.88-.43A1.13,1.13,0,0,1,99.47,115.45Z"/><path class="cls-2" d="M104.6,116.27l.75.24a1.26,1.26,0,0,1-.56.58,1.37,1.37,0,0,1-.82.1,1.3,1.3,0,0,1-1-.65,1.76,1.76,0,0,1-.15-1,1.65,1.65,0,0,1,.54-1.08,1.39,1.39,0,0,1,2,.3,1.88,1.88,0,0,1,.17,1.36l-1.92-.27a.84.84,0,0,0,.11.56.61.61,0,0,0,.42.25.41.41,0,0,0,.31-.06A.54.54,0,0,0,104.6,116.27Zm.16-.76a.77.77,0,0,0-.1-.54.56.56,0,0,0-.82-.1.73.73,0,0,0-.23.47Z"/><path class="cls-2" d="M107.64,117.52l.26-4,.82.05-.27,4Z"/><path class="cls-2" d="M110.76,116.37l.79-.09a1,1,0,0,0,.3.58.92.92,0,0,0,.59.18.94.94,0,0,0,.59-.18.47.47,0,0,0,.2-.39.32.32,0,0,0-.09-.24.7.7,0,0,0-.3-.18l-.65-.16a2.15,2.15,0,0,1-.93-.39,1.07,1.07,0,0,1-.22-1.38,1.1,1.1,0,0,1,.5-.42,1.89,1.89,0,0,1,.79-.15,1.68,1.68,0,0,1,1.15.31,1.18,1.18,0,0,1,.42.88l-.81.05a.7.7,0,0,0-.24-.44.83.83,0,0,0-.52-.13.9.9,0,0,0-.55.16.28.28,0,0,0-.13.25.34.34,0,0,0,.13.24,2.08,2.08,0,0,0,.75.26,3.91,3.91,0,0,1,.89.28,1.09,1.09,0,0,1,.45.4,1.17,1.17,0,0,1,.17.64,1.14,1.14,0,0,1-.18.66,1.1,1.1,0,0,1-.54.45,2.17,2.17,0,0,1-.87.17,1.83,1.83,0,0,1-1.19-.34A1.55,1.55,0,0,1,110.76,116.37Z"/><path class="cls-2" d="M116,114.55l0,.62-.52,0,.08,1.18c0,.24,0,.38,0,.42a.23.23,0,0,0,.08.09.28.28,0,0,0,.13,0,1.18,1.18,0,0,0,.31-.1l.11.6a1.66,1.66,0,0,1-.61.16,1,1,0,0,1-.38,0,.61.61,0,0,1-.26-.16.84.84,0,0,1-.13-.3,4.38,4.38,0,0,1-.06-.54l-.09-1.27-.35,0-.05-.61.36,0,0-.58.74-.5.07,1Z"/><path class="cls-2" d="M116.49,114.1l-.08-.71.77-.08.08.71Zm.34,3.31-.3-2.91.77-.08.3,2.91Z"/><path class="cls-2" d="M118.47,117.23l-.54-4,.77-.1.54,4Z"/><path class="cls-2" d="M120.1,117l-.67-4,.77-.13.66,4Z"/><path class="cls-2" d="M123.4,116.37l-1-3.88.79-.2.8,3.23,2-.5.17.66Z"/><path class="cls-2" d="M126.24,114.09a1.53,1.53,0,0,1,0-.77,1.4,1.4,0,0,1,.34-.69,1.67,1.67,0,0,1,.69-.42,1.48,1.48,0,0,1,1.17.08,1.55,1.55,0,0,1,.74.91,1.52,1.52,0,0,1-.07,1.17,1.44,1.44,0,0,1-.9.75,1.58,1.58,0,0,1-.78.07,1.26,1.26,0,0,1-.69-.34A1.68,1.68,0,0,1,126.24,114.09Zm.77-.2a.94.94,0,0,0,.4.57.65.65,0,0,0,.56.06.63.63,0,0,0,.41-.37,1,1,0,0,0,0-.71.94.94,0,0,0-.4-.56.65.65,0,0,0-.56-.07.67.67,0,0,0-.41.38A1,1,0,0,0,127,113.89Z"/><path class="cls-2" d="M131,114l-2.17-2.29.75-.3,1.07,1.19.33.4c0-.13,0-.22,0-.26s0-.17,0-.26l0-1.6.74-.29v3.15Z"/><path class="cls-2" d="M134.48,111.52l.76-.21a1.25,1.25,0,0,1-.15.78,1.4,1.4,0,0,1-.64.55,1.31,1.31,0,0,1-1.23,0,1.6,1.6,0,0,1-.69-.79,1.55,1.55,0,0,1-.14-1.19,1.22,1.22,0,0,1,.69-.78,1.3,1.3,0,0,1,1.12-.05,1.93,1.93,0,0,1,.89,1l-1.76.83a.78.78,0,0,0,.4.4.58.58,0,0,0,.48,0,.52.52,0,0,0,.24-.22A.56.56,0,0,0,134.48,111.52Zm-.29-.73a.76.76,0,0,0-.38-.39.5.5,0,0,0-.43,0,.49.49,0,0,0-.3.34.7.7,0,0,0,.06.52Z"/><path class="cls-2" d="M138.6,110.38l-.87-1.46-2.47-1.26.82-.49,1.64.89,0-1.85.81-.48-.08,2.78.87,1.46Z"/><path class="cls-2" d="M139.68,108a1.64,1.64,0,0,1-.26-.73,1.28,1.28,0,0,1,.13-.75,1.63,1.63,0,0,1,.54-.6,1.46,1.46,0,0,1,1.14-.26,1.49,1.49,0,0,1,1,.67,1.46,1.46,0,0,1,.26,1.15,1.45,1.45,0,0,1-.64,1,1.75,1.75,0,0,1-.74.28,1.32,1.32,0,0,1-.76-.13A1.8,1.8,0,0,1,139.68,108Zm.68-.41a1,1,0,0,0,.55.43.67.67,0,0,0,.55-.09.65.65,0,0,0,.29-.48.93.93,0,0,0-.21-.67,1,1,0,0,0-.54-.44.67.67,0,0,0-.55.1.64.64,0,0,0-.29.48A1,1,0,0,0,140.36,107.57Z"/><path class="cls-2" d="M145.16,105.87l-.27-.34a1.08,1.08,0,0,1-.1.55,1.24,1.24,0,0,1-.35.44,1.09,1.09,0,0,1-.5.23.83.83,0,0,1-.49-.08,1.62,1.62,0,0,1-.48-.45l-1.14-1.45.61-.48.83,1.06a4,4,0,0,0,.5.57.39.39,0,0,0,.26.07.45.45,0,0,0,.27-.11.59.59,0,0,0,.22-.3.69.69,0,0,0,0-.35,3.67,3.67,0,0,0-.44-.66l-.77-1,.61-.48,1.81,2.31Z"/></svg>