<svg id="Layer_1" data-name="Layer 1" xmlns="http://www.w3.org/2000/svg" viewBox="0 0 232 56"><defs><style>.cls-1{fill:#fff;}</style></defs><title>Artboard 1</title><path class="cls-1" d="M89.11,42.81a7.76,7.76,0,0,0,1.85-2A9,9,0,0,0,92,38.3a11,11,0,0,0,.33-2.66,10,10,0,0,0-.52-3.23,7.19,7.19,0,0,0-1.64-2.7,7.94,7.94,0,0,0-2.83-1.84,11,11,0,0,0-4.1-.69H37.91a12,12,0,0,0-4,.6,7.26,7.26,0,0,0-2.74,1.7,6.54,6.54,0,0,0-1.55,2.58,10.48,10.48,0,0,0-.48,3.24,11,11,0,0,0,.4,2.94,6.53,6.53,0,0,0,1.42,2.64,7.13,7.13,0,0,0,2.83,1.88,12.68,12.68,0,0,0,4.65.72H45a6.72,6.72,0,0,1,2.16.29,3.76,3.76,0,0,1,1.36.77,2.78,2.78,0,0,1,.71,1.14A4.24,4.24,0,0,1,49.43,47a3.49,3.49,0,0,1-.94,2.53,3.93,3.93,0,0,1-3,1H29.77L22.1,30.32a5.19,5.19,0,0,0-2.2-2.83,7.36,7.36,0,0,0-3.67-.82,7.41,7.41,0,0,0-3.71.82,5.34,5.34,0,0,0-2.24,2.83L.35,55.46H5.79l9-22.75a1.46,1.46,0,0,1,1.43-1,1.37,1.37,0,0,1,1.38,1l8.59,22.75H45.37a11.86,11.86,0,0,0,4.12-.63,7.54,7.54,0,0,0,2.79-1.74,6.59,6.59,0,0,0,1.59-2.62,10.22,10.22,0,0,0,.51-3.31,12,12,0,0,0-.4-3,6.46,6.46,0,0,0-1.47-2.69,7.71,7.71,0,0,0-2.91-1.9,13,13,0,0,0-4.74-.74H38.24a6.48,6.48,0,0,1-2.05-.27,3.27,3.27,0,0,1-1.28-.75,2.72,2.72,0,0,1-.67-1.09,4.06,4.06,0,0,1-.19-1.24,3.42,3.42,0,0,1,.88-2.41,3.68,3.68,0,0,1,2.81-.94h20.8V55.46h5V32.12H83.42a3.72,3.72,0,0,1,3,1.11,3.9,3.9,0,0,1,.94,2.62,4.61,4.61,0,0,1-.23,1.47,3.55,3.55,0,0,1-.69,1.25,3.24,3.24,0,0,1-1.21.88,4.35,4.35,0,0,1-1.8.34h-11A4.65,4.65,0,0,0,69,40.84a4.69,4.69,0,0,0-1,3.43V55.46h5V45.24a.63.63,0,0,1,.71-.72H81l6.46,10.94h5.49L86.35,44.15A8.07,8.07,0,0,0,89.11,42.81Z"/><path class="cls-1" d="M110.11,27.18h-3.85q-6.21,0-9.5,3.52T93.47,41.38q0,7.13,3.29,10.6t9.5,3.48h3.85q6.19,0,9.49-3.48t3.29-10.6q0-7.17-3.29-10.68T110.11,27.18ZM116,48.36q-1.86,2.16-5.93,2.16h-3.85c-2.77,0-4.77-.72-6-2.14s-1.84-3.76-1.84-7,.62-5.63,1.86-7.08,3.24-2.18,6-2.18h3.85q4.11,0,6,2.18t1.84,7Q117.9,46.2,116,48.36Z"/><path class="cls-1" d="M155,27.18h-5V49.55a1.55,1.55,0,0,1-.44,1.15,1.65,1.65,0,0,1-1.24.44,1.79,1.79,0,0,1-1.13-.33,2.42,2.42,0,0,1-.67-.84l-8.25-18.06a9.44,9.44,0,0,0-2.41-3.83,7.85,7.85,0,0,0-9.37.29,6.26,6.26,0,0,0-1.59,4.46V55.46h4.94V33.08a1.62,1.62,0,0,1,.44-1.19,1.76,1.76,0,0,1,1.28-.44,1.82,1.82,0,0,1,1.76,1.21l8.26,18.07a11.14,11.14,0,0,0,1,2.17A6.5,6.5,0,0,0,144,54.56a5.57,5.57,0,0,0,1.92,1,8.7,8.7,0,0,0,2.58.35,6.43,6.43,0,0,0,4.88-1.69A6.27,6.27,0,0,0,155,49.76Z"/><path class="cls-1" d="M174.46,27.49a7.29,7.29,0,0,0-3.66-.82,7.41,7.41,0,0,0-3.71.82,5.35,5.35,0,0,0-2.25,2.83l-9.93,25.14h5.45l9-22.75a1.44,1.44,0,0,1,1.42-1,1.39,1.39,0,0,1,1.39,1l8.59,22.75h5.49l-9.56-25.14A5.11,5.11,0,0,0,174.46,27.49Z"/><path class="cls-1" d="M209.69,27.18h-4.86V46.07a4.46,4.46,0,0,1-1.14,3.29,4.72,4.72,0,0,1-3.52,1.16h-5a4.81,4.81,0,0,1-3.59-1.16,4.53,4.53,0,0,1-1.11-3.29V27.18h-5V46.45q0,9,9.14,9h5.95c3,0,5.34-.75,6.87-2.26s2.31-3.76,2.31-6.75V32.12h6.55V55.46h5V32.12h8.25V27.18Z"/><path class="cls-1" d="M5.77.13H21.36V2H7.7v8.47H18.48V12.3H7.7V22H21.39v1.83H5.77Z"/><path class="cls-1" d="M41.93,23.86,32.24.13h2.14L39.6,12.91C41.66,18,43,21.52,43,21.59h.07c0-.07,1.35-3.56,3.39-8.51L51.73.13h2.1L44.14,23.86Z"/><path class="cls-1" d="M65.73.13H81.32V2H67.66v8.47H78.44V12.3H67.66V22h13.7v1.83H65.73Z"/><path class="cls-1" d="M102.14,14.13h-5.8v9.73H94.41V.13h6.78c5.42,0,8.67,2.65,8.67,7.22,0,3.77-2.2,5.8-5.69,6.45l6,10.06H107.8Zm-.75-1.62c3.83,0,6.51-1.29,6.51-5.09S105.32,2,101.19,2H96.34V12.51Z"/><path class="cls-1" d="M130.78,23.86h-1.93V13.29L119.56.13h2.27l5.76,8.17,2.27,3.19h0s.84-1.29,2.17-3.12L137.93.13h2.17l-9.32,13.16Z"/><path class="cls-1" d="M159.66.13c7.42,0,12.64,4.62,12.64,12s-5.22,11.76-12.37,11.76H152V.13Zm.2,21.9c5.8,0,10.47-3.35,10.47-9.93S165.72,2,159.59,2h-5.66V22Z"/><path class="cls-1" d="M187.12,16.91l-3,7H182L192.4.13h2.07l10.34,23.73h-2.1l-3-6.95Zm8.94-8.4c-.94-2.21-2.57-6.1-2.61-6.14h-.06s-1.66,3.9-2.61,6.1l-2.88,6.65h11Z"/><path class="cls-1" d="M222.3,23.86h-1.93V13.29L211.08.13h2.27l5.76,8.17,2.28,3.19h0s.85-1.29,2.17-3.12L229.45.13h2.17L222.3,13.29Z"/></svg>