<svg id="Layer_1" data-name="Layer 1" xmlns="http://www.w3.org/2000/svg" viewBox="0 0 95.55 115.26"><defs><style>.cls-1{font-size:14.2px;font-family:Oxanium-SemiBold, Oxanium;font-weight:700;letter-spacing:0.22em;}.cls-1,.cls-5{fill:#fff;}.cls-2{fill:#a6aba8;stroke:#000;}.cls-2,.cls-3{stroke-miterlimit:10;stroke-width:2px;}.cls-3{stroke:#fff;}.cls-4{fill:#fdce0c;}</style></defs><title>Artboard 1</title><text class="cls-1" transform="translate(30.78 115.26)">LZ2</text><circle class="cls-2" cx="47.72" cy="47.74" r="46.69"/><circle class="cls-3" cx="48.01" cy="47.74" r="28.02"/><path class="cls-4" d="M30.76,47.07,29.11,47A19.29,19.29,0,0,1,47.66,28.46l.06,1.65a17.66,17.66,0,0,0-17,17Z"/><path class="cls-4" d="M47.66,67A19.3,19.3,0,0,1,29.11,48.47l1.65-.07a17.64,17.64,0,0,0,17,17Z"/><path class="cls-4" d="M49.12,67l-.06-1.66a17.63,17.63,0,0,0,17-17l1.66.07A19.3,19.3,0,0,1,49.12,67Z"/><path class="cls-4" d="M66,47.07a17.64,17.64,0,0,0-17-17l.06-1.65A19.29,19.29,0,0,1,67.67,47Z"/><path class="cls-5" d="M45.18,43.75H41l-.22.43,4.58,3.36c.86-.5,1.83-1,2.83-1.5"/><path class="cls-5" d="M48.9,50.05,53,53H57.1l.18-.39-6-4.4c-.78.6-1.61,1.21-2.36,1.86"/><path class="cls-5" d="M44.57,53H40.81l-.32-.5C43,50,54.41,39.49,79.15,38.38c0,0-20.73.72-34.58,14.6"/></svg>